<svg viewBox="0 0 24 24" xmlns="http://www.w3.org/2000/svg" fill-rule="evenodd" clip-rule="evenodd" stroke-linejoin="round" stroke-miterlimit="1.414"><path d="M20.143 12l1.848 1.808c.268.25.357.563.268.938-.107.366-.339.593-.697.683l-2.517.642.709 2.491c.108.367.023.679-.254.938-.259.277-.571.362-.938.254l-2.491-.709-.642 2.517c-.09.358-.317.59-.683.697a1.637 1.637 0 0 1-.255.027.884.884 0 0 1-.683-.295L12 20.143l-1.808 1.848c-.25.268-.563.357-.938.268a.896.896 0 0 1-.683-.697l-.642-2.517-2.492.709c-.366.108-.678.023-.937-.254-.277-.259-.362-.571-.254-.938l.709-2.491-2.518-.642c-.357-.09-.589-.317-.696-.683-.089-.375 0-.688.268-.938L3.857 12l-1.848-1.808c-.268-.25-.357-.563-.268-.938.107-.366.339-.593.697-.683l2.517-.642-.709-2.492c-.108-.366-.023-.678.254-.937.259-.277.571-.362.938-.254l2.491.709.642-2.518a.87.87 0 0 1 .683-.683c.367-.107.679-.022.938.255L12 3.871l1.808-1.862c.259-.268.571-.353.938-.255a.87.87 0 0 1 .683.684l.642 2.517 2.491-.709c.367-.108.679-.023.938.254.277.259.362.571.254.938l-.709 2.491 2.517.642c.358.09.59.317.697.683.089.375 0 .688-.268.938L20.143 12z" fill-rule="nonzero"/></svg>